<svg width="40" height="316" viewBox="0 0 40 316" fill="none" xmlns="http://www.w3.org/2000/svg">
<circle opacity="0.1" cx="20" cy="140" r="19.5" transform="rotate(-90 20 140)" stroke="#141313"/>
<path d="M26.6666 138.67L20.0885 138.67L20.0885 136.037L17.513 135.646L17.513 138.67L15.8725 138.67C15.1293 138.67 14.6204 138.424 14.6204 137.159L14.6204 135.556L12.3242 135.556C12.2536 136.335 12.2199 137.12 12.2223 137.904C12.2223 140.231 13.4198 141.829 15.6181 141.829L17.5082 141.829L17.5082 144.444L20.0837 144.444L20.0837 141.823L26.6666 141.823L26.6666 138.67Z" fill="#141313"/>
<circle opacity="0.1" cx="20" cy="80" r="19.5" transform="rotate(-90 20 80)" stroke="#141313"/>
<path d="M16.096 73.2645C14.9037 73.9598 13.9594 74.9033 13.2649 76.0964C12.5703 77.2887 12.2227 78.5899 12.2227 80.0001C12.2227 81.4102 12.5703 82.7114 13.2649 83.9045C13.9594 85.0968 14.9037 86.0411 16.096 86.7356C17.2883 87.4302 18.5903 87.7778 20.0004 87.7778C21.4105 87.7778 22.7125 87.4309 23.9049 86.7356C25.098 86.0403 26.0414 85.0968 26.736 83.9037C27.4305 82.7114 27.7782 81.4102 27.7782 80.0001C27.7782 78.5899 27.4305 77.2887 26.736 76.0956C26.0414 74.9033 25.098 73.9591 23.9049 73.2637C22.7125 72.5692 21.4105 72.2223 20.0004 72.2223C18.5903 72.2223 17.2883 72.5692 16.096 73.2645ZM13.5138 80.0001C13.5138 78.4445 14.0115 77.0663 15.0063 75.8623C15.9194 76.5778 16.6708 77.6403 17.2619 79.0512C15.8518 79.8305 14.6742 80.6752 13.7308 81.5875C13.5861 81.0571 13.5138 80.5297 13.5138 80.0001ZM15.956 85.0478C15.2194 84.4614 14.6447 83.7598 14.2293 82.9393C15.1634 81.9966 16.3293 81.1309 17.7293 80.3415C18.196 81.8971 18.4293 83.5413 18.4293 85.2734C18.4293 85.7191 18.4192 86.0558 18.3982 86.2845C17.5061 86.0457 16.6925 85.6335 15.956 85.0478ZM20.0004 86.4867C19.9584 86.4867 19.9071 86.4844 19.8449 86.4789C19.7827 86.4735 19.7313 86.4712 19.6893 86.4712C19.7002 86.2736 19.7049 85.9726 19.7049 85.5682C19.7049 83.4946 19.4194 81.5657 18.8493 79.7823C19.1394 79.6368 19.4661 79.4859 19.8293 79.3312C20.0572 80.3578 20.6118 81.4109 21.4938 82.4897C22.3758 83.5685 23.3037 84.3556 24.2782 84.8534C23.0439 85.9423 21.6182 86.4867 20.0004 86.4867ZM26.4871 80.0001C26.4871 81.4732 26.0305 82.7954 25.119 83.9675C24.1958 83.5001 23.313 82.7822 22.4738 81.8123C21.6338 80.8432 21.1103 79.8811 20.9027 78.9267C22.5617 78.3263 24.2774 77.9211 26.0515 77.7134C26.3417 78.4709 26.4871 79.2332 26.4871 80.0001ZM23.4071 74.4934C24.2362 75.0114 24.916 75.6803 25.4457 76.5001C23.8279 76.6867 22.2513 77.0445 20.716 77.5726C20.6647 76.8477 20.6382 76.1998 20.6382 75.6282C20.6382 75.0067 20.6647 74.3168 20.716 73.5601C21.6804 73.6643 22.5772 73.9754 23.4071 74.4934ZM19.5182 75.4578C19.5182 76.3601 19.5548 77.1946 19.6271 77.9623C19.1192 78.1598 18.6992 78.3356 18.3671 78.4912C17.6624 76.8843 16.8069 75.7441 15.8004 75.0697C16.9002 74.1364 18.1548 73.6277 19.5649 73.5453C19.5338 74.1768 19.5182 74.8146 19.5182 75.4578Z" fill="#141313"/>
<circle opacity="0.1" cx="20" cy="20" r="19.5" transform="rotate(-90 20 20)" stroke="#141313"/>
<path d="M16.7236 12.5087C15.9101 12.5445 15.3508 12.6761 14.8662 12.8645C14.3517 13.059 13.8912 13.3581 13.5083 13.7499C13.1195 14.1328 12.8173 14.5964 12.626 15.1049C12.4375 15.5923 12.3059 16.1487 12.2701 16.9622C12.2312 17.7818 12.2222 18.042 12.2222 20.1208C12.2222 22.1995 12.2312 22.4597 12.267 23.2763C12.3029 24.0898 12.4346 24.6491 12.6229 25.1336C12.8173 25.6482 13.1164 26.1088 13.5083 26.4916C13.8912 26.8805 14.3548 27.1825 14.8633 27.374C15.3508 27.5624 15.9071 27.694 16.7206 27.7299C17.5402 27.7688 17.8004 27.7778 19.8792 27.7778C21.9579 27.7778 22.2181 27.7688 23.0347 27.7329C23.8482 27.697 24.4075 27.5654 24.8921 27.3769C25.4066 27.1825 25.8671 26.8805 26.25 26.4916C26.6388 26.1088 26.941 25.6452 27.1324 25.1367C27.3208 24.6491 27.4524 24.0929 27.4882 23.2792C27.5242 22.4628 27.5331 22.2025 27.5331 20.1237C27.5331 18.0449 27.5242 17.7848 27.4882 16.9682C27.4524 16.1547 27.3208 15.5954 27.1324 15.1108C26.7345 14.0819 25.921 13.2683 24.8921 12.8705C24.4046 12.6822 23.8482 12.5505 23.0347 12.5146C22.2181 12.4787 21.9579 12.4697 19.8792 12.4697C17.8004 12.4697 17.5402 12.4728 16.7236 12.5087ZM22.9749 13.8874C23.7226 13.9204 24.1264 14.046 24.3956 14.1507C25.0626 14.4079 25.592 14.9373 25.8493 15.6044C25.954 15.8735 26.0796 16.2802 26.1124 17.0251C26.1484 17.8327 26.1572 18.0749 26.1572 20.1177C26.1572 22.1606 26.1484 22.4059 26.1124 23.2105C26.0796 23.9583 25.954 24.3621 25.8493 24.6312C25.7266 24.9632 25.5322 25.2653 25.2779 25.5106C25.0297 25.7648 24.7306 25.9592 24.3986 26.0819C24.1294 26.1866 23.7226 26.3122 22.9779 26.345C22.1703 26.381 21.928 26.3899 19.8851 26.3899C17.8422 26.3899 17.597 26.381 16.7925 26.345C16.0447 26.3122 15.6409 26.1866 15.3717 26.0819C15.0397 25.9592 14.7377 25.7648 14.4923 25.5075C14.2381 25.2594 14.0436 24.9603 13.9211 24.6282C13.8164 24.359 13.6908 23.9522 13.6579 23.2075C13.622 22.3999 13.613 22.1576 13.613 20.1148C13.613 18.0689 13.622 17.8267 13.6579 17.022C13.6908 16.2743 13.8164 15.8705 13.9211 15.6013C14.0436 15.2694 14.2381 14.9672 14.4923 14.722C14.7406 14.4678 15.0397 14.2734 15.3717 14.1507C15.6409 14.046 16.0476 13.9204 16.7925 13.8874C17.6 13.8516 17.8422 13.8426 19.8851 13.8426C21.928 13.8426 22.1673 13.8516 22.9749 13.8874Z" fill="#141313"/>
<path d="M15.9463 20.1215C15.9463 22.2929 17.7079 24.0547 19.8795 24.0547C22.051 24.0547 23.8127 22.2929 23.8127 20.1215C23.8127 17.95 22.051 16.1883 19.8795 16.1883C17.7079 16.1883 15.9463 17.95 15.9463 20.1215ZM22.4308 20.1215C22.4308 21.5302 21.2883 22.6729 19.8795 22.6729C18.4707 22.6729 17.3281 21.5302 17.3281 20.1215C17.3281 18.7127 18.4707 17.5701 19.8795 17.5701C21.2883 17.5701 22.4308 18.7127 22.4308 20.1215Z" fill="#141313"/>
<path d="M15.7901 15.1144C16.2971 15.1144 16.7082 15.5255 16.7082 16.0326C16.7082 16.5396 16.2971 16.9506 15.7901 16.9506C15.283 16.9506 14.8721 16.5396 14.8721 16.0326C14.8721 15.5255 15.283 15.1144 15.7901 15.1144Z" fill="#141313"/>
<path opacity="0.3" d="M23 185L23 316" stroke="#141313" stroke-width="2"/>
</svg>
