<svg width="67" height="67" viewBox="0 0 67 67" fill="none" xmlns="http://www.w3.org/2000/svg">
<circle cx="33.4999" cy="33.4999" r="33.0832" stroke="white" stroke-width="0.833334"/>
<path d="M30.0609 32.3944C30.0609 32.3944 33.5011 32.139 33.5011 28.1082C33.5011 24.0772 30.6864 22.1101 27.121 22.1101H20.5584H20.3656H15.389V44.6364H20.3656H20.5584H27.121C27.121 44.6364 34.283 44.862 34.283 37.9876C34.283 37.9876 34.5957 32.3944 30.0609 32.3944ZM20.5584 26.1137H26.2766H27.121C27.121 26.1137 28.716 26.1137 28.716 28.4572C28.716 30.8008 27.7778 31.1406 26.7145 31.1406H20.5584V26.1137ZM26.8186 40.6329H20.5584V34.6129H27.121C27.121 34.6129 29.4979 34.5817 29.4979 37.7063C29.4979 40.3116 27.7594 40.6068 26.8186 40.6329Z" fill="white"/>
<path d="M43.8342 27.842C35.164 27.842 35.1718 36.4967 35.1718 36.4967C35.1718 36.4967 34.5767 45.1079 43.8344 45.1079C43.8344 45.1079 51.5493 45.5481 51.5493 39.1176H47.5816C47.5816 39.1176 47.7138 41.5398 43.9666 41.5398C43.9666 41.5398 39.9988 41.8049 39.9988 37.6202H51.6815C51.6815 37.6202 52.9596 27.842 43.8342 27.842ZM47.3609 34.6136H39.9546C39.9546 34.6136 40.4396 31.1413 43.9224 31.1413C47.4052 31.1413 47.3609 34.6136 47.3609 34.6136Z" fill="white"/>
<path d="M48.2866 23.3956H38.9848V25.6657H48.2866V23.3956Z" fill="white"/>
</svg>
