<svg width="67" height="67" viewBox="0 0 67 67" fill="none" xmlns="http://www.w3.org/2000/svg">
<circle cx="33.4998" cy="33.4998" r="33.0832" stroke="white" stroke-width="0.833333"/>
<path fill-rule="evenodd" clip-rule="evenodd" d="M22.159 33.4993C22.159 30.7692 24.3722 28.5561 27.1025 28.5561H32.0461V38.443H27.1025C24.3723 38.443 22.159 36.2295 22.159 33.4993ZM27.1025 26.8113H32.0461V16.9242H27.1025C24.3723 16.9242 22.159 19.1375 22.159 21.8678C22.159 24.598 24.3723 26.8113 27.1025 26.8113ZM43.6779 21.8678C43.6779 24.598 41.4646 26.8113 38.7344 26.8113H33.7909V16.9242H38.7344C41.4646 16.9242 43.6779 19.1375 43.6779 21.8678ZM33.7909 33.4993C33.7909 30.7692 36.0042 28.5561 38.7344 28.5561C41.4646 28.5561 43.6779 30.7692 43.6779 33.4993C43.6779 36.2295 41.4646 38.443 38.7344 38.443C36.0042 38.443 33.7909 36.2295 33.7909 33.4993ZM27.1025 40.1877H32.0461V45.1318C32.0461 47.862 29.8328 50.0754 27.1025 50.0754C24.3723 50.0754 22.159 47.862 22.159 45.1318C22.159 42.4015 24.3724 40.1877 27.1025 40.1877Z" fill="white"/>
</svg>
