<svg width="27" height="27" viewBox="0 0 27 27" fill="none" xmlns="http://www.w3.org/2000/svg">
<path d="M26.9998 26.9985V17.1104C26.9998 12.2506 25.9536 8.53835 20.2839 8.53835C17.5503 8.53835 15.7279 10.0233 14.9855 11.4407H14.918V8.97707H9.55204V26.9985H15.1542V18.0553C15.1542 15.6929 15.5929 13.4318 18.4953 13.4318C21.3639 13.4318 21.3976 16.0979 21.3976 18.1903V26.9648H26.9998V26.9985Z" fill="white"/>
<path d="M0.438992 8.9766H6.04117V26.9981H0.438992V8.9766Z" fill="white"/>
<path d="M3.23981 0C1.45117 0 0 1.45117 0 3.23981C0 5.02846 1.45117 6.51338 3.23981 6.51338C5.02846 6.51338 6.47963 5.02846 6.47963 3.23981C6.47963 1.45117 5.02846 0 3.23981 0Z" fill="white"/>
</svg>
