<svg width="67" height="67" viewBox="0 0 67 67" fill="none" xmlns="http://www.w3.org/2000/svg">
<circle cx="33.4999" cy="33.4999" r="33.0832" stroke="white" stroke-width="0.833334"/>
<path d="M45.5876 26.4929C44.3696 24.3821 42.6166 22.6296 40.5054 21.4121C38.3656 20.1656 36.0304 19.5417 33.4997 19.5417C30.9691 19.5417 28.6339 20.1656 26.4927 21.4121C24.3529 22.6586 22.6583 24.3531 21.4119 26.4929C20.1654 28.6327 19.5415 30.9694 19.5415 33.5C19.5415 36.0306 20.164 38.3672 21.4119 40.507C22.6295 42.6182 24.3826 44.3708 26.4941 45.5879C28.6339 46.8343 30.9691 47.4583 33.4997 47.4583C36.0304 47.4583 38.3656 46.8343 40.5068 45.5879C42.618 44.3704 44.371 42.6179 45.589 40.507C46.8355 38.3672 47.458 36.0306 47.458 33.5C47.458 30.9694 46.8355 28.6327 45.5876 26.4929ZM33.4997 21.8588C36.2914 21.8588 38.7648 22.7521 40.9256 24.5374C39.6414 26.1761 37.7347 27.5244 35.2027 28.5853C33.804 26.0546 32.2882 23.9414 30.6509 22.2482C31.5788 21.9916 32.537 21.8607 33.4997 21.8588ZM24.4408 26.2417C25.4615 24.9456 26.753 23.888 28.2249 23.1429C29.9167 24.8193 31.4702 26.9117 32.887 29.4242C30.0953 30.2617 27.1445 30.6804 24.036 30.6804C23.2362 30.6804 22.6318 30.6623 22.2215 30.6246C22.6492 29.0255 23.405 27.5329 24.4408 26.2417ZM21.8585 33.5C21.8585 33.4246 21.8627 33.3325 21.8725 33.2208C21.8823 33.1092 21.8865 33.017 21.8865 32.9417C22.241 32.9612 22.7812 32.9696 23.507 32.9696C27.2283 32.9696 30.6899 32.4573 33.8906 31.4342C34.1516 31.9548 34.4224 32.5411 34.7002 33.1929C32.8577 33.6019 30.9677 34.5971 29.0317 36.18C27.0957 37.7629 25.6831 39.4281 24.7898 41.177C22.8356 38.9619 21.8585 36.4033 21.8585 33.5ZM33.4997 45.1412C30.856 45.1412 28.4831 44.3218 26.3796 42.6859C27.2185 41.0291 28.5069 39.4448 30.2475 37.9387C31.9867 36.4312 33.7133 35.4918 35.426 35.1192C36.5064 38.1048 37.2371 41.2056 37.6035 44.3595C36.2954 44.8707 34.9041 45.1357 33.4997 45.1412ZM43.3822 39.6137C42.4686 41.0857 41.2383 42.3355 39.781 43.2722C39.446 40.3689 38.8039 37.5395 37.8561 34.7842C39.157 34.692 40.3198 34.6446 41.3457 34.6446C42.461 34.6446 43.6991 34.692 45.0572 34.7842C44.875 36.5008 44.302 38.1529 43.3822 39.6137ZM41.6514 32.6346C40.0322 32.6346 38.5345 32.7002 37.1568 32.83C36.865 32.0662 36.5484 31.312 36.2077 30.5688C39.0914 29.3041 41.1377 27.7687 42.3479 25.9625C44.0229 27.9362 44.9358 30.1877 45.0837 32.7183C43.9503 32.6625 42.8057 32.6346 41.6514 32.6346Z" fill="white"/>
</svg>
