<svg width="40" height="144" viewBox="0 0 40 144" fill="none" xmlns="http://www.w3.org/2000/svg">
<circle cx="20" cy="20" r="20" fill="white"/>
<path d="M23.364 13.9261H28.8537V15.2762H23.364V13.9261ZM17.8633 19.2678C19.0768 18.6792 19.7124 17.7838 19.7124 16.4003C19.7124 13.6639 17.7037 13 15.384 13H9V26.735H15.5629C18.0229 26.735 20.3316 25.5356 20.3316 22.7462C20.3316 21.0223 19.5281 19.7476 17.8633 19.2678ZM11.9774 15.3431H14.7704C15.8463 15.3431 16.8121 15.6471 16.8121 16.9135C16.8121 18.0795 16.0609 18.5481 14.996 18.5481H11.9774V15.3431ZM15.1556 24.4031H11.9746V20.6206H15.2189C16.5287 20.6206 17.357 21.1757 17.357 22.5816C17.357 23.9651 16.3691 24.4031 15.1556 24.4031ZM31 21.9066C31 18.9637 29.3022 16.5119 26.2313 16.5119C23.2457 16.5119 21.2149 18.7908 21.2149 21.7782C21.2149 24.8745 23.1383 27 26.2313 27C28.573 27 30.0892 25.9317 30.8184 23.6527H28.4437C28.185 24.5035 27.1338 24.9498 26.3166 24.9498C24.7371 24.9498 23.9116 24.0126 23.9116 22.4198H30.9807C30.989 22.2552 31 22.0823 31 21.9066ZM23.9116 20.696C23.9969 19.3877 24.8582 18.5704 26.146 18.5704C27.4998 18.5704 28.1767 19.3766 28.2951 20.696H23.9116Z" fill="#141313"/>
<circle cx="20" cy="72" r="20" fill="white"/>
<path d="M28.66 66.98C27.766 65.447 26.553 64.233 25.019 63.34C23.486 62.447 21.813 62 20 62C18.187 62 16.514 62.447 14.98 63.34C13.447 64.233 12.233 65.447 11.34 66.98C10.447 68.513 10 70.187 10 72C10 73.813 10.446 75.487 11.34 77.02C12.234 78.554 13.447 79.767 14.981 80.66C16.514 81.553 18.187 82 20 82C21.813 82 23.486 81.553 25.02 80.66C26.553 79.767 27.767 78.554 28.661 77.02C29.554 75.487 30 73.813 30 72C30 70.187 29.554 68.513 28.66 66.98ZM20 63.66C22 63.66 23.772 64.3 25.32 65.579C24.4 66.753 23.034 67.719 21.22 68.479C20.218 66.666 19.132 65.152 17.959 63.939C18.641 63.753 19.319 63.66 20 63.66ZM13.51 66.8C14.264 65.853 15.166 65.114 16.221 64.58C17.433 65.781 18.546 67.28 19.561 69.08C17.561 69.68 15.447 69.98 13.22 69.98C12.647 69.98 12.214 69.967 11.92 69.94C12.227 68.793 12.757 67.747 13.51 66.8ZM11.66 72C11.66 71.946 11.663 71.88 11.67 71.8C11.677 71.72 11.68 71.654 11.68 71.6C11.934 71.614 12.321 71.62 12.841 71.62C15.507 71.62 17.987 71.253 20.28 70.52C20.467 70.893 20.661 71.313 20.86 71.78C19.54 72.073 18.186 72.786 16.799 73.92C15.412 75.054 14.4 76.247 13.76 77.5C12.36 75.913 11.66 74.08 11.66 72ZM20 80.34C18.106 80.34 16.406 79.753 14.899 78.581C15.5 77.394 16.423 76.259 17.67 75.18C18.916 74.1 20.153 73.427 21.38 73.16C22.152 75.293 22.673 77.499 22.94 79.78C21.966 80.153 20.986 80.34 20 80.34ZM27.08 76.38C26.414 77.446 25.554 78.32 24.5 79.001C24.26 76.921 23.8 74.894 23.121 72.92C24.053 72.854 24.886 72.82 25.621 72.82C26.42 72.82 27.307 72.854 28.28 72.92C28.146 74.16 27.746 75.313 27.08 76.38ZM25.84 71.38C24.68 71.38 23.607 71.427 22.62 71.52C22.366 70.867 22.14 70.327 21.94 69.9C24.006 68.994 25.472 67.894 26.339 66.6C27.539 68.014 28.193 69.627 28.299 71.44C27.487 71.4 26.667 71.38 25.84 71.38Z" fill="#141313"/>
<circle cx="20" cy="124" r="20" fill="white"/>
<path d="M29.9802 119.507C29.9326 118.417 29.7581 117.667 29.5081 117.017C29.2501 116.327 28.8533 115.71 28.3334 115.196C27.8254 114.675 27.2103 114.27 26.5357 114.013C25.8889 113.761 25.1508 113.584 24.0714 113.536C22.984 113.484 22.6387 113.472 19.8807 113.472C17.1227 113.472 16.7775 113.484 15.6941 113.532C14.6147 113.58 13.8727 113.757 13.2298 114.009C12.5471 114.27 11.9361 114.671 11.4281 115.196C10.9122 115.71 10.5115 116.331 10.2574 117.013C10.0074 117.667 9.83283 118.413 9.78524 119.503C9.73362 120.602 9.72168 120.951 9.72168 123.738C9.72168 126.525 9.73362 126.874 9.78121 127.969C9.82879 129.06 10.0035 129.809 10.2535 130.459C10.5115 131.149 10.9122 131.766 11.4281 132.28C11.9361 132.801 12.5512 133.206 13.2258 133.463C13.8727 133.715 14.6107 133.892 15.6902 133.94C16.7735 133.988 17.1188 134 19.8768 134C22.6349 134 22.9801 133.988 24.0635 133.94C25.1428 133.892 25.8849 133.715 26.5278 133.463C27.893 132.929 28.9723 131.839 29.5002 130.459C29.75 129.805 29.9247 129.06 29.9723 127.969C30.0199 126.874 30.0319 126.525 30.0319 123.738C30.0319 120.951 30.0278 120.602 29.9802 119.507ZM28.1509 127.889C28.1072 128.891 27.9406 129.432 27.8017 129.793C27.4603 130.688 26.7579 131.397 25.873 131.742C25.5158 131.883 24.9762 132.051 23.988 132.095C22.9165 132.143 22.5952 132.155 19.8848 132.155C17.1743 132.155 16.8489 132.143 15.7814 132.095C14.7893 132.051 14.2535 131.883 13.8964 131.742C13.456 131.578 13.0551 131.317 12.7297 130.976C12.3924 130.644 12.1345 130.243 11.9717 129.797C11.8328 129.437 11.6662 128.891 11.6226 127.893C11.5749 126.81 11.5631 126.485 11.5631 123.746C11.5631 121.007 11.5749 120.678 11.6226 119.6C11.6662 118.597 11.8328 118.056 11.9717 117.695C12.1345 117.25 12.3924 116.845 12.7338 116.516C13.063 116.175 13.4599 115.914 13.9004 115.75C14.2576 115.61 14.7973 115.441 15.7854 115.397C16.8569 115.349 17.1784 115.337 19.8886 115.337C22.6031 115.337 22.9244 115.349 23.992 115.397C24.9841 115.441 25.5198 115.61 25.877 115.75C26.3174 115.914 26.7183 116.175 27.0436 116.516C27.381 116.849 27.6389 117.25 27.8017 117.695C27.9406 118.056 28.1072 118.601 28.1509 119.6C28.1985 120.682 28.2104 121.007 28.2104 123.746C28.2104 126.485 28.1985 126.806 28.1509 127.889Z" fill="#141313"/>
<path d="M19.8791 118.465C16.9981 118.465 14.6606 120.827 14.6606 123.738C14.6606 126.65 16.9981 129.012 19.8791 129.012C22.7602 129.012 25.0975 126.65 25.0975 123.738C25.0975 120.827 22.7602 118.465 19.8791 118.465ZM19.8791 127.159C18.01 127.159 16.494 125.627 16.494 123.738C16.494 121.849 18.01 120.318 19.8791 120.318C21.7482 120.318 23.2641 121.849 23.2641 123.738C23.2641 125.627 21.7482 127.159 19.8791 127.159Z" fill="#141313"/>
<path d="M26.5241 118.256C26.5241 118.936 25.9787 119.487 25.3059 119.487C24.6333 119.487 24.0879 118.936 24.0879 118.256C24.0879 117.576 24.6333 117.025 25.3059 117.025C25.9787 117.025 26.5241 117.576 26.5241 118.256Z" fill="#141313"/>
</svg>
